<svg version="1" xmlns="http://www.w3.org/2000/svg" width="1877.333" height="1877.333" viewBox="0 0 1408.000000 1408.000000"><path d="M690.1 306.6c-7.2 2.7-14.2 7.9-19.2 14.4-3.9 4.9-9.2 14-8.3 14 .4 0 .2.6-.4 1.3-1.2 1.5-5.9 14.1-6.6 17.8-.2 1.3-.5 2.4-.6 2.4-.1 0-.3.7-.5 1.5s-.8 3.7-1.5 6.5c-.7 2.7-1.4 6.8-1.6 9-.2 2.2-.6 5.1-.9 6.5-1.7 8.4-2.5 42-1.2 57 1 12.1 1.7 15.9 4.7 26.5 1.6 5.5 3.1 11.9 3.4 14.2.3 2.2.8 5.2 1 6.5.9 3.9 1.6 8 2.1 13.3.3 2.7 1 7.2 1.5 10 .5 2.7 1.2 7.7 1.5 11 .3 3.3.7 7.3.9 9 .2 1.6.6 6.1 1 10 .4 3.8.9 8.6 1.1 10.5 2.6 23.5 3.6 39.1 3.9 59.3.1 9.2-.1 17.1-.4 17.5-.3.5-2.5.8-5 .9-2.5.1-11 .4-19 .8-8 .3-19.4.8-25.5 1-6 .3-15.9.7-22 1-6 .3-16.6.7-23.5 1-6.9.2-17.4.7-23.5 1-6 .3-16.4.7-23 1-6.6.2-17.6.7-24.5 1.1-6.9.3-16.3.7-21 .9-22.3.8-45 1.8-69.5 3-7.7.4-18.9.8-25 1-6 .2-11 .4-11 .5 0 .2-29.3 1.2-39.7 1.4-6 0-10.8.3-10.8.6s-3 .6-6.8.6c-10.5.2-42.8 1.5-71.2 2.9-10.5.5-27 1.2-45.5 2-6.6.2-17.6.7-24.5 1-21.4 1-34.1 1.5-45 1.9-11.5.5-31.7 1.4-48 2.1-5.8.3-15.8.7-22.3 1-6.5.2-12.2.7-12.7 1-.5.3-1.1.1-1.5-.5-.4-.6-1.1-.7-1.7-.4-.6.4-5.4.9-10.7 1.1-5.3.2-13 .5-17.1.7-4.1.2-10.3.5-13.7.5L0 654v57.6l5.3.2c2.8.1 9.9.4 15.7.6 5.8.2 17.3.7 25.5 1 8.3.3 20.9.9 28 1.2 14.1.6 29.2 1.2 48.1 1.8 6.6.3 17.6.7 24.5 1 6.8.3 19.6.8 28.4 1.2 33.3 1.2 36 1.3 36 1.4 0 .1 5 .3 11 .5 16.9.5 40.9 1.4 52.5 2 5.8.3 16.8.7 24.5 1 7.7.3 19.4.7 26 1 6.6.3 18.1.7 25.5 1 20 .8 37 1.5 50.5 2 6.6.3 17.4.7 24 .9 28.1 1 38.8 1.6 39.3 2 .2.3 1.2.1 2.2-.4 1-.5 2-.6 2.4-.3.4.4 4.6.8 9.4.9 4.8.2 14.1.5 20.7.8 6.6.3 18.5.8 26.5 1 8 .3 19.5.8 25.5 1 12.3.6 36.3 1.5 53 2.2 6.1.2 16.9.6 24 .9 7.2.3 19 .7 26.2.9 7.3.3 13.6.7 14 .9.5.2 1.5.3 2.3.2 1.3-.2 1.5 2.4 1.7 17.9.2 17.9.7 52.5 1.9 130.6.3 22.3.7 49.5.8 60.5l.1 20-3-.2c-4.3-.2-13.3-1.1-18.5-1.7-2.5-.3-6.6-.8-9.2-1.1-2.7-.3-6.7-.7-9-1-2.4-.3-6.8-.7-9.8-.9-6.9-.6-14.2-1.4-20-2.2-2.5-.4-5.8-.7-7.5-.9-5.5-.5-16.9-1.6-24-2.5-3.8-.4-7.7-.8-8.5-.9-4.1-.3-11.9-1.1-15.5-1.6-2.2-.3-6.2-.8-9-1-2.7-.3-6.8-.8-9-1-2.2-.2-7.4-.7-11.5-1.1l-7.5-.6.1 10.3c.1 5.7.3 10.8.4 11.4.1.5.2 1.4 0 2-.2 1.4-.3 20.8 0 22 .1.5.2 1.4 0 2-.3 1.9-.2 15.6.1 15.9.5.5 7.3 1.7 11.4 2.1 1.7.1 5.3.6 8 .9 8.1 1.2 12.8 1.7 17 2.1 2.2.1 5.6.5 7.5.8 3.4.6 18 2.4 25 3.2 1.9.2 5.1.6 7 .9 1.9.3 6.2.8 9.5 1.1 3.3.4 7.4.8 9 1 1.7.2 4.9.7 7.3 1 2.3.3 6.1.8 8.5 1.1 2.3.3 5.8.7 7.7.9 5.9.6 18.3 2.2 24 3 1.4.2 5 .6 8 1 3 .3 6.4.7 7.5 1 1.1.2 2.8.4 3.7.4 1.5.1 1.7.9 1.3 5.1-.3 3 0 5.2.7 5.6.7.5.8.2.3-.7-.7-1.1-.6-1.2.6-.3.8.7 2.8 1.5 4.6 1.8 1.7.4 3.6 1.3 4.1 1.9.5.7.8 10.2.8 21.2-.1 21.9.4 24.6 5.4 29.5 6 5.9 15.2 6 21.6.3 5.8-5.3 5.9-5.9 5.9-29.5l-.1-21.7 3.1-.7c1.6-.3 4.2-1.3 5.8-2.1 2.5-1.3 2.7-1.7 2.1-5.8-.5-4.2-.4-4.5 1.8-4.6 1.3 0 3.2-.2 4.3-.4 1.9-.4 6.8-1.1 15-2 2.2-.3 5.6-.7 7.5-1 1.9-.3 5.8-.7 8.5-1 2.8-.3 6.2-.7 7.7-1 1.4-.3 5.5-.7 9-1 3.4-.2 6.3-.5 6.3-.5 0-.3 3.2-.8 9-1.4 3.3-.3 7.2-.8 8.6-1.1 1.5-.3 4.8-.7 7.5-.9 2.7-.3 4.9-.5 4.9-.6 0-.1 1.4-.3 3-.4 4.2-.4 14.5-1.6 17.5-2.1 2.4-.4 4.2-.6 16.5-2 2.8-.3 6.2-.8 7.6-1 2.3-.4 5.7-.8 16.9-2 7.4-.7 10.9-1.8 11.2-3.2.2-.9.2-15.3 0-32l-.3-30.4-7.2.6c-15.4 1.4-25.8 2.5-28.7 3-1.4.3-5.2.7-8.5 1-3.3.3-7.6.7-9.5.9-4.4.6-19 2.1-29 3.1-4.5.4-10.3 1-19.5 2.1-2.7.3-7 .7-9.5.9-2.5.2-6.1.6-8 .9-3.8.6-14.4 1.7-20 2.1-1.9.2-3.5.4-3.5.5 0 .1-2 .3-4.4.5-2.4.2-6.5.6-9.1.9l-4.8.5.4-24.2c.3-22.9.5-36.3 2-133.2.3-22 .7-46.8.8-55 .1-8.3.5-15.6.9-16.3.5-.7 2-1.2 3.5-1.2 2.8.1 22.3-.6 43.3-1.5 20.7-1 33.7-1.5 48.9-2 8-.2 14.5-.5 14.5-.6 0 0 4.7-.2 10.5-.4s16.8-.6 24.5-.9c19.3-.8 33.5-1.4 50.5-2.1 8-.3 20.1-.7 27-1 6.9-.3 18.3-.7 25.4-1 7.1-.3 13.2-.8 13.7-1.1.5-.3.9 0 .9.6s.5.8 1.1.4c.6-.4 5-.8 9.8-.9 8.8-.3 28.6-1.1 51.1-2.1 6.9-.3 17.9-.7 24.5-1 24.8-.8 51.4-1.9 77-3 8.3-.3 19.5-.8 25-.9 5.5-.2 10-.4 10-.5 0-.1 5.9-.3 13.2-.5 7.3-.2 18.5-.6 25-.9 14.9-.7 39.1-1.7 50.9-2 5-.2 9.6-.6 10.2-1 .6-.3 1.3-.2 1.7.4.4.6 1 .8 1.5.5.5-.3 6.2-.8 12.6-1 6.5-.3 18.1-.7 25.8-1 20.3-.8 33.2-1.4 49.6-2 8-.4 15.7-.6 17.3-.5h2.7v-28.9c0-27-.1-29-1.7-28.9-1 0-8.5-.3-16.8-.7-14.9-.7-18.9-.9-46-2-7.7-.3-18.3-.7-23.5-1-11.3-.5-40.5-1.7-47.5-1.9-2.7-.1-5.5-.5-6.2-.9-.6-.4-1.4-.3-1.8.3-.4.6-1.1.8-1.6.4-.6-.3-6-.8-12.1-1-6.1-.1-17-.6-24.2-.9-17.4-.8-31.6-1.4-45.6-2-6.3-.2-16.7-.7-23-1-23.5-1-34.8-1.5-47.5-2-7.1-.3-17.9-.8-24-1.1-12.6-.5-24.6-1-46-1.9-8.2-.3-19-.7-23.8-1-4.9-.2-15.2-.7-23-1-7.8-.3-18-.8-22.7-1-4.7-.2-14.6-.6-22-1-7.4-.3-18.7-.8-25-1-26.3-1.2-37.1-1.6-47.5-2-6-.2-11-.5-11-.5 0-.1-3.6-.3-8-.4-4.4-.2-16.1-.7-26-1.1-9.9-.4-22.6-.8-28.2-.9-5.7-.1-10.3-.3-10.3-.6s-3.9-.6-8.8-.7c-11.8-.2-44.6-1.7-46.2-2.2-1-.2.4-55.3 1.4-57 .2-.3.7-4.2 1.1-8.6 1-10.7 1.4-14.8 2.1-22.5.4-3.6.7-8 .8-9.7.1-1.8.3-3.3.6-3.3s.6-1.2.6-2.8c.2-3.8 1.3-14.3 1.8-16.7.2-1.1.7-4.7 1.1-8 1-8.1 1.3-10 1.5-10 .2 0 .5-1.9 1.6-8.5.4-2.5.9-5 1-5.5.2-.6.6-2.3.9-3.9.3-1.6 1-3.6 1.4-4.5 1.7-3.3 3.7-14 4.8-26.1 1.3-14.4.5-52.2-1.1-57.1-.3-.8-.7-3.4-1-5.9-.3-2.5-.7-5.6-1-7-1.3-6-3-13.5-3.1-14-.1-.3-.6-2-1-3.8-.4-1.8-1.2-3.5-1.6-3.8-.5-.3-.9-1.5-.9-2.8 0-1.2-.4-2.6-.8-3.1-.5-.6-1.5-2.6-2.2-4.5-4.1-10.4-11.4-19.5-20.5-25.5-7.2-4.7-10.8-5.7-21.6-6-5.9-.2-8.9.3-13.8 2.1z"/></svg>