<?xml version="1.0" standalone="no"?>
<!DOCTYPE svg PUBLIC "-//W3C//DTD SVG 20010904//EN"
 "http://www.w3.org/TR/2001/REC-SVG-20010904/DTD/svg10.dtd">
<svg version="1.0" xmlns="http://www.w3.org/2000/svg"
 width="1408.000000pt" height="1408.000000pt" viewBox="0 0 1408.000000 1408.000000"
 preserveAspectRatio="xMidYMid meet">
<metadata>
Created by potrace 1.11, written by Peter Selinger 2001-2013
</metadata>
<g transform="translate(0.000000,1408.000000) scale(0.100000,-0.100000)"
fill="#000000" stroke="none">
<path d="M6901 11014 c-72 -27 -142 -79 -192 -144 -39 -49 -92 -140 -83 -140
4 0 2 -6 -4 -13 -12 -15 -59 -141 -66 -178 -2 -13 -5 -24 -6 -24 -1 0 -3 -7
-5 -15 -2 -8 -8 -37 -15 -65 -7 -27 -14 -68 -16 -90 -2 -22 -6 -51 -9 -65 -17
-84 -25 -420 -12 -570 10 -121 17 -159 47 -265 16 -55 31 -119 34 -142 3 -22
8 -52 10 -65 9 -39 16 -80 21 -133 3 -27 10 -72 15 -100 5 -27 12 -77 15 -110
3 -33 7 -73 9 -90 2 -16 6 -61 10 -100 4 -38 9 -86 11 -105 26 -235 36 -391
39 -593 1 -92 -1 -171 -4 -175 -3 -5 -25 -8 -50 -9 -25 -1 -110 -4 -190 -8
-80 -3 -194 -8 -255 -10 -60 -3 -159 -7 -220 -10 -60 -3 -166 -7 -235 -10 -69
-2 -174 -7 -235 -10 -60 -3 -164 -7 -230 -10 -66 -2 -176 -7 -245 -11 -69 -3
-163 -7 -210 -9 -223 -8 -450 -18 -695 -30 -77 -4 -189 -8 -250 -10 -60 -2
-110 -4 -110 -5 0 -2 -293 -12 -397 -14 -60 0 -108 -3 -108 -6 0 -3 -30 -6
-68 -6 -105 -2 -428 -15 -712 -29 -105 -5 -270 -12 -455 -20 -66 -2 -176 -7
-245 -10 -214 -10 -341 -15 -450 -19 -115 -5 -317 -14 -480 -21 -58 -3 -158
-7 -223 -10 -65 -2 -122 -7 -127 -10 -5 -3 -11 -1 -15 5 -4 6 -11 7 -17 4 -6
-4 -54 -9 -107 -11 -53 -2 -130 -5 -171 -7 -41 -2 -103 -5 -137 -5 l-63 -1 0
-288 0 -288 53 -2 c28 -1 99 -4 157 -6 58 -2 173 -7 255 -10 83 -3 209 -9 280
-12 141 -6 292 -12 481 -18 66 -3 176 -7 245 -10 68 -3 196 -8 284 -12 333
-12 360 -13 360 -14 0 -1 50 -3 110 -5 169 -5 409 -14 525 -20 58 -3 168 -7
245 -10 77 -3 194 -7 260 -10 66 -3 181 -7 255 -10 200 -8 370 -15 505 -20 66
-3 174 -7 240 -9 281 -10 388 -16 393 -20 2 -3 12 -1 22 4 10 5 20 6 24 3 4
-4 46 -8 94 -9 48 -2 141 -5 207 -8 66 -3 185 -8 265 -10 80 -3 195 -8 255
-10 123 -6 363 -15 530 -22 61 -2 169 -6 240 -9 72 -3 190 -7 262 -9 73 -3
136 -7 140 -9 5 -2 15 -3 23 -2 13 2 15 -24 17 -179 2 -179 7 -525 19 -1306 3
-223 7 -495 8 -605 l1 -200 -30 2 c-43 2 -133 11 -185 17 -25 3 -66 8 -92 11
-27 3 -67 7 -90 10 -24 3 -68 7 -98 9 -69 6 -142 14 -200 22 -25 4 -58 7 -75
9 -55 5 -169 16 -240 25 -38 4 -77 8 -85 9 -41 3 -119 11 -155 16 -22 3 -62 8
-90 10 -27 3 -68 8 -90 10 -22 2 -74 7 -115 11 l-75 6 1 -103 c1 -57 3 -108 4
-114 1 -5 2 -14 0 -20 -2 -14 -3 -208 0 -220 1 -5 2 -14 0 -20 -3 -19 -2 -156
1 -159 5 -5 73 -17 114 -21 17 -1 53 -6 80 -9 81 -12 128 -17 170 -21 22 -1
56 -5 75 -8 34 -6 180 -24 250 -32 19 -2 51 -6 70 -9 19 -3 62 -8 95 -11 33
-4 74 -8 90 -10 17 -2 49 -7 73 -10 23 -3 61 -8 85 -11 23 -3 58 -7 77 -9 59
-6 183 -22 240 -30 14 -2 50 -6 80 -10 30 -3 64 -7 75 -10 11 -2 28 -4 37 -4
15 -1 17 -9 13 -51 -3 -30 0 -52 7 -56 7 -5 8 -2 3 7 -7 11 -6 12 6 3 8 -7 28
-15 46 -18 17 -4 36 -13 41 -19 5 -7 8 -102 8 -212 -1 -219 4 -246 54 -295 60
-59 152 -60 216 -3 58 53 59 59 59 295 l-1 217 31 7 c16 3 42 13 58 21 25 13
27 17 21 58 -5 42 -4 45 18 46 13 0 32 2 43 4 19 4 68 11 150 20 22 3 56 7 75
10 19 3 58 7 85 10 28 3 62 7 77 10 14 3 55 7 90 10 34 2 63 5 63 5 0 3 32 8
90 14 33 3 72 8 86 11 15 3 48 7 75 9 27 3 49 5 49 6 0 1 14 3 30 4 42 4 145
16 175 21 24 4 42 6 165 20 28 3 62 8 76 10 23 4 57 8 169 20 74 7 109 18 112
32 2 9 2 153 0 320 l-3 304 -72 -6 c-154 -14 -258 -25 -287 -30 -14 -3 -52 -7
-85 -10 -33 -3 -76 -7 -95 -9 -44 -6 -190 -21 -290 -31 -45 -4 -103 -10 -195
-21 -27 -3 -70 -7 -95 -9 -25 -2 -61 -6 -80 -9 -38 -6 -144 -17 -200 -21 -19
-2 -35 -4 -35 -5 0 -1 -20 -3 -44 -5 -24 -2 -65 -6 -91 -9 l-48 -5 4 242 c3
229 5 363 20 1332 3 220 7 468 8 550 1 83 5 156 9 163 5 7 20 12 35 12 28 -1
223 6 433 15 207 10 337 15 489 20 80 2 145 5 145 6 0 0 47 2 105 4 58 2 168
6 245 9 193 8 335 14 505 21 80 3 201 7 270 10 69 3 183 7 254 10 71 3 132 8
137 11 5 3 9 0 9 -6 0 -6 5 -8 11 -4 6 4 50 8 98 9 88 3 286 11 511 21 69 3
179 7 245 10 248 8 514 19 770 30 83 3 195 8 250 9 55 2 100 4 100 5 0 1 59 3
132 5 73 2 185 6 250 9 149 7 391 17 509 20 50 2 96 6 102 10 6 3 13 2 17 -4
4 -6 10 -8 15 -5 5 3 62 8 126 10 65 3 181 7 258 10 203 8 332 14 496 20 80 4
157 6 173 5 l27 0 0 289 c0 270 -1 290 -17 289 -10 0 -85 3 -168 7 -149 7
-189 9 -460 20 -77 3 -183 7 -235 10 -113 5 -405 17 -475 19 -27 1 -55 5 -62
9 -6 4 -14 3 -18 -3 -4 -6 -11 -8 -16 -4 -6 3 -60 8 -121 10 -61 1 -170 6
-242 9 -174 8 -316 14 -456 20 -63 2 -167 7 -230 10 -235 10 -348 15 -475 20
-71 3 -179 8 -240 11 -126 5 -246 10 -460 19 -82 3 -190 7 -238 10 -49 2 -152
7 -230 10 -78 3 -180 8 -227 10 -47 2 -146 6 -220 10 -74 3 -187 8 -250 10
-263 12 -371 16 -475 20 -60 2 -110 5 -110 5 0 1 -36 3 -80 4 -44 2 -161 7
-260 11 -99 4 -226 8 -282 9 -57 1 -103 3 -103 6 0 3 -39 6 -88 7 -118 2 -446
17 -462 22 -10 2 4 553 14 570 2 3 7 42 11 86 10 107 14 148 21 225 4 36 7 80
8 97 1 18 3 33 6 33 3 0 6 12 6 28 2 38 13 143 18 167 2 11 7 47 11 80 10 81
13 100 15 100 2 0 5 19 16 85 4 25 9 50 10 55 2 6 6 23 9 39 3 16 10 36 14 45
17 33 37 140 48 261 13 144 5 522 -11 571 -3 8 -7 34 -10 59 -3 25 -7 56 -10
70 -13 60 -30 135 -31 140 -1 3 -6 20 -10 38 -4 18 -12 35 -16 38 -5 3 -9 15
-9 28 0 12 -4 26 -8 31 -5 6 -15 26 -22 45 -41 104 -114 195 -205 255 -72 47
-108 57 -216 60 -59 2 -89 -3 -138 -21z"/>
</g>
</svg>
